<svg width="1120" height="287" viewBox="0 0 1120 287" fill="none" xmlns="http://www.w3.org/2000/svg">
<g filter="url(#filter0_i_90_207)">
<path d="M1062.39 97.7539C1095.93 97.7539 1120 121.286 1120 163.208C1120 204.321 1097.01 232.992 1061.04 232.992C1041.56 232.992 1028.58 224.877 1021.28 212.705V286.274H984.223V98.8359H1020.19L1021.01 118.312C1028.58 106.41 1042.37 97.7539 1062.39 97.7539ZM279.721 175.65C279.721 191.067 287.566 200.806 301.088 200.807C316.236 200.807 326.785 189.717 326.785 173.218V99.1064H363.839V194.314C363.839 199.453 366.543 202.427 370.331 202.427C372.493 202.427 373.847 202.157 376.823 201.077L378.985 230.286C373.847 231.91 367.625 232.992 359.513 232.992C342.743 232.992 332.195 225.148 328.406 210.272C321.105 223.795 308.392 232.992 289.189 232.992C259.166 232.992 242.397 211.355 242.396 184.308V99.1064H279.721V175.65ZM660.229 194.314C660.229 199.453 662.935 202.427 666.721 202.427C668.885 202.427 670.236 202.157 673.213 201.077L675.375 230.286C670.236 231.91 664.015 232.992 655.902 232.992C634.265 232.992 623.175 220.009 623.175 196.477V39.6025H660.229V194.314ZM751.214 97.7539C792.327 97.7539 819.374 125.072 819.374 164.832C819.374 204.592 792.327 232.992 751.214 232.992C710.644 232.992 683.326 205.945 683.326 166.185C683.326 126.154 710.644 97.7539 751.214 97.7539ZM898.148 97.7539C939.259 97.7541 966.306 125.072 966.306 164.832C966.305 204.592 939.259 232.992 898.148 232.992C857.576 232.992 830.258 205.945 830.258 166.185C830.258 126.154 857.576 97.7539 898.148 97.7539ZM555.298 97.7539C584.78 97.7539 600.468 118.582 600.468 148.062V231.64H563.143V156.178C563.143 139.408 554.757 129.942 541.234 129.942C526.357 129.942 516.079 141.032 516.079 157.53V231.64H479.024V156.178C479.024 139.679 470.912 129.942 457.116 129.942C442.241 129.942 431.963 141.032 431.963 157.53V231.64H394.906V99.1064H430.61L431.692 118.312C439.264 106.14 452.248 97.7539 470.642 97.7539C492.008 97.7541 506.072 108.843 512.293 125.342C519.055 109.384 533.39 97.754 555.298 97.7539ZM233.461 0.719727C230.565 35.536 198.855 35.7626 192.99 36.374C187.132 36.9847 141.76 36.3755 141.651 36.374C101.053 36.8814 95.7425 37.5136 83.412 42.707C65.8959 50.1173 52.678 62.6561 44.331 79.7559C39.3353 89.9502 38.1976 94.7018 37.5654 108.76C36.6157 127.252 42.3712 143.402 55.3339 159.107C62.0365 167.215 75.6975 176.525 86.3212 180.196C95.2352 183.3 97.5771 183.681 108.136 184.061C117.242 184.378 119.392 184.25 125.082 183.048C132.354 181.526 138.995 179.057 146.394 175.131C159.357 168.228 170.548 156.196 177.126 142.135C183.324 128.836 185.601 110.47 181.805 104.454C180.982 103.125 179.465 101.478 178.453 100.78C174.28 97.7412 173.774 97.7412 139.374 98.0586L107.06 98.4385L104.404 100.21C102.95 101.16 100.928 103.315 99.8505 104.896C97.4491 108.76 97.4489 111.927 99.788 116.551C101.18 119.4 102.066 120.287 104.912 121.679L108.388 123.453H158.093V124.973C158.093 126.682 154.929 133.84 152.465 137.701C142.536 153.344 123.627 162.401 105.544 160.185C93.3382 158.727 83.6019 154.042 75.3798 145.682C67.6651 137.892 63.1767 129.089 61.5947 118.705C58.8756 101.16 65.7057 83.1755 78.9833 72.5986C85.5609 67.4703 90.1144 65.0636 97.4491 62.9092L103.393 61.1367L138.173 61.3271C158.408 61.3896 174.659 61.7071 177.063 62.1494C182.374 62.9742 189.457 65.0635 192.238 66.6455C197.931 69.812 200.27 71.2691 201.725 72.5986C202.609 73.4234 203.432 74.0557 203.684 74.0557C204.383 74.0575 208.49 78.1723 209.944 80.3887C210.766 81.5904 211.65 82.7324 211.841 82.9229C213.738 84.6323 218.798 97.2987 219.873 102.872C221.58 111.992 219.746 132.446 216.205 143.53C209.25 165.441 194.643 186.468 177.696 199.071C157.271 214.207 135.329 221.614 110.982 221.614C92.3264 221.614 76.9612 218.068 61.3417 210.215C34.5291 196.726 14.7365 173.928 5.82219 146.252C2.84817 136.942 2.21564 134.282 0.951094 125.353C-2.27266 102.237 2.78594 76.8421 14.8017 56.3232C24.3482 39.9207 38.4504 25.6721 54.7021 16.0449C61.0896 12.2462 62.3545 11.6117 66.4003 9.83984C67.6023 9.3325 69.9414 8.38285 71.5234 7.68555C76.5814 5.53379 86.0654 2.93662 92.9579 1.85938C98.1435 0.972122 103.899 0.782175 119.201 0.719727H233.461ZM751.214 128.318C732.823 128.318 720.651 143.194 720.651 165.644C720.651 187.552 732.823 202.427 751.214 202.427C770.148 202.427 781.779 187.552 781.779 165.644C781.779 143.194 770.148 128.318 751.214 128.318ZM898.148 128.318C879.755 128.318 867.583 143.194 867.583 165.644C867.583 187.552 879.755 202.427 898.148 202.427C917.08 202.427 928.711 187.552 928.711 165.644C928.711 143.194 917.08 128.319 898.148 128.318ZM1052.92 128.86C1032.37 128.86 1021.28 146.171 1021.28 161.046V169.43C1021.28 185.387 1032.91 201.886 1052.65 201.886C1070.23 201.886 1082.4 187.281 1082.4 164.832C1082.4 142.924 1071.04 128.86 1052.92 128.86Z" fill="#EAEAEA"/>
</g>
<defs>
<filter id="filter0_i_90_207" x="0" y="0.719727" width="1120" height="289.555" filterUnits="userSpaceOnUse" color-interpolation-filters="sRGB">
<feFlood flood-opacity="0" result="BackgroundImageFix"/>
<feBlend mode="normal" in="SourceGraphic" in2="BackgroundImageFix" result="shape"/>
<feColorMatrix in="SourceAlpha" type="matrix" values="0 0 0 0 0 0 0 0 0 0 0 0 0 0 0 0 0 0 127 0" result="hardAlpha"/>
<feOffset dy="4"/>
<feGaussianBlur stdDeviation="2"/>
<feComposite in2="hardAlpha" operator="arithmetic" k2="-1" k3="1"/>
<feColorMatrix type="matrix" values="0 0 0 0 0.882353 0 0 0 0 0.882353 0 0 0 0 0.882353 0 0 0 1 0"/>
<feBlend mode="normal" in2="shape" result="effect1_innerShadow_90_207"/>
</filter>
</defs>
</svg>
